<svg xmlns="http://www.w3.org/2000/svg" xmlns:xlink="http://www.w3.org/1999/xlink" viewBox="0 0 430 430" width="430" height="430" preserveAspectRatio="xMidYMid meet" style="width: 100%; height: 100%; transform: translate3d(0px, 0px, 0px); content-visibility: visible;"><defs><clipPath id="__lottie_element_4074"><rect width="430" height="430" x="0" y="0"/></clipPath><clipPath id="__lottie_element_4076"><path d="M0,0 L500,0 L500,500 L0,500z"/></clipPath><clipPath id="__lottie_element_4081"><path d="M0,0 L500,0 L500,500 L0,500z"/></clipPath><clipPath id="__lottie_element_4085"><path d="M0,0 L500,0 L500,500 L0,500z"/></clipPath><clipPath id="__lottie_element_4095"><path d="M0,0 L500,0 L500,500 L0,500z"/></clipPath><clipPath id="__lottie_element_4105"><path d="M0,0 L500,0 L500,500 L0,500z"/></clipPath><g id="__lottie_element_4108"><g transform="matrix(1.0019999742507935,0,0,1.0019999742507935,249.9980010986328,250.19400024414062)" opacity="1" style="display: block;"><g opacity="1" transform="matrix(1,0,0,1,0,0)"><path fill="rgb(75,179,253)" fill-opacity="1" d=" M166.0500030517578,0 C166.0500030517578,91.70600128173828 91.70600128173828,166.0500030517578 0,166.0500030517578 C-91.70600128173828,166.0500030517578 -166.0500030517578,91.70600128173828 -166.0500030517578,0 C-166.0500030517578,-91.70600128173828 -91.70600128173828,-166.0500030517578 0,-166.0500030517578 C91.70600128173828,-166.0500030517578 166.0500030517578,-91.70600128173828 166.0500030517578,0z"/></g></g></g><mask id="__lottie_element_4108_1" mask-type="alpha"><use xmlns:ns1="http://www.w3.org/1999/xlink" ns1:href="#__lottie_element_4108"/></mask><clipPath id="__lottie_element_4233"><path d="M0,0 L500,0 L500,500 L0,500z"/></clipPath><clipPath id="__lottie_element_4243"><path d="M0,0 L500,0 L500,500 L0,500z"/></clipPath><g id="__lottie_element_4246"><g transform="matrix(1.0019999742507935,0,0,1.0019999742507935,249.9980010986328,250.19400024414062)" opacity="1" style="display: block;"><g opacity="1" transform="matrix(1,0,0,1,0,0)"><path fill="rgb(75,179,253)" fill-opacity="1" d=" M166.0500030517578,0 C166.0500030517578,91.70600128173828 91.70600128173828,166.0500030517578 0,166.0500030517578 C-91.70600128173828,166.0500030517578 -166.0500030517578,91.70600128173828 -166.0500030517578,0 C-166.0500030517578,-91.70600128173828 -91.70600128173828,-166.0500030517578 0,-166.0500030517578 C91.70600128173828,-166.0500030517578 166.0500030517578,-91.70600128173828 166.0500030517578,0z"/></g></g></g><mask id="__lottie_element_4246_1" mask-type="alpha"><use xmlns:ns2="http://www.w3.org/1999/xlink" ns2:href="#__lottie_element_4246"/></mask></defs><g clip-path="url(#__lottie_element_4074)"><g clip-path="url(#__lottie_element_4076)" transform="matrix(1,0,0,1,-35,-35)" opacity="1" style="display: block;"><g clip-path="url(#__lottie_element_4081)" transform="matrix(1,0,0,1,0,0)" opacity="1" style="display: block;"><g clip-path="url(#__lottie_element_4095)" transform="matrix(1,0,0,1,0,0)" opacity="1" style="display: block;"><g transform="matrix(1,0,0,1,249.9980010986328,250.19400024414062)" opacity="1" style="display: block;"><g opacity="1" transform="matrix(1,0,0,1,0,0)"><path class="primary" fill="rgb(75,179,253)" fill-opacity="1" d=" M166.0500030517578,0 C166.0500030517578,91.70600128173828 91.70600128173828,166.0500030517578 0,166.0500030517578 C-91.70600128173828,166.0500030517578 -166.0500030517578,91.70600128173828 -166.0500030517578,0 C-166.0500030517578,-91.70600128173828 -91.70600128173828,-166.0500030517578 0,-166.0500030517578 C91.70600128173828,-166.0500030517578 166.0500030517578,-91.70600128173828 166.0500030517578,0z"/></g></g><g transform="matrix(1,0,0,1,166.30799865722656,250.1909942626953)" opacity="0.5" style="mix-blend-mode: multiply; display: block;"><g opacity="1" transform="matrix(1,0,0,1,0,0)" style="mix-blend-mode: multiply;"><path class="primary" fill="rgb(75,179,253)" fill-opacity="1" d=" M82.36000061035156,166.0399932861328 C-8.739999771118164,165.3300018310547 -82.36000061035156,91.26000213623047 -82.36000061035156,0 C-82.36000061035156,-91.2699966430664 -8.739999771118164,-165.3300018310547 82.36000061035156,-166.0399932861328 C26.420000076293945,-164.88999938964844 -18.719999313354492,-90.98999786376953 -18.719999313354492,0 C-18.719999313354492,90.9800033569336 26.420000076293945,164.88999938964844 82.36000061035156,166.0399932861328z"/></g></g><g mask="url(#__lottie_element_4108_1)" style="display: block;"><g clip-path="url(#__lottie_element_4105)" transform="matrix(1,0,0,1,0,0)" opacity="1"><g transform="matrix(1,0,0,1,385.7720031738281,249.99899291992188)" opacity="1" style="display: block;"><g opacity="1" transform="matrix(1,0,0,1,0,0)"><path stroke-linecap="round" stroke-linejoin="round" fill-opacity="0" class="secondary" stroke="rgb(235,230,239)" stroke-opacity="1" stroke-width="7" d=" M-301.2770080566406,-0.00800000037997961 C-301.2770080566406,-0.00800000037997961 -135.66099548339844,-0.01600000075995922 -135.66099548339844,-0.01600000075995922 M30.277000427246094,0 C30.277000427246094,0 -135.71400451660156,-0.004000000189989805 -135.71400451660156,-0.004000000189989805"/></g></g><g transform="matrix(1,0,0,1,250.0050048828125,135.4810028076172)" opacity="1" style="display: block;"><g opacity="1" transform="matrix(1,0,0,1,0,0)"><path stroke-linecap="round" stroke-linejoin="round" fill-opacity="0" class="secondary" stroke="rgb(235,230,239)" stroke-opacity="1" stroke-width="7" d=" M107.35099792480469,-12.137999534606934 C78.42500305175781,3.00600004196167 40.96500015258789,12.137999534606934 0.017000000923871994,12.137999534606934 C-40.930999755859375,12.137999534606934 -78.39199829101562,3.00600004196167 -107.35099792480469,-12.137999534606934"/></g></g><g transform="matrix(1,0,0,1,250.0050048828125,364.52301025390625)" opacity="1" style="display: block;"><g opacity="1" transform="matrix(1,0,0,1,0,0)"><path stroke-linecap="round" stroke-linejoin="round" fill-opacity="0" class="secondary" stroke="rgb(235,230,239)" stroke-opacity="1" stroke-width="7" d=" M-107.35099792480469,12.137999534606934 C-78.42500305175781,-3.00600004196167 -40.96500015258789,-12.137999534606934 -0.017000000923871994,-12.137999534606934 C40.930999755859375,-12.137999534606934 78.39199829101562,-3.00600004196167 107.35099792480469,12.137999534606934"/></g></g><g transform="matrix(1,0,0,1,302.85699462890625,249.99899291992188)" opacity="1" style="display: none;"><g opacity="1" transform="matrix(1,0,0,1,0,0)"><path stroke-linecap="round" stroke-linejoin="round" fill-opacity="0" class="secondary" stroke="rgb(235,230,239)" stroke-opacity="1" stroke-width="7" d=" M-52.85900115966797,166.0500030517578 C-144.53799438476562,166.0500030517578 -218.85699462890625,91.70600128173828 -218.85699462890625,0 C-218.85699462890625,-91.70600128173828 -144.53799438476562,-166.0500030517578 -52.85900115966797,-166.0500030517578"/></g></g><g transform="matrix(1,0,0,1,302.85699462890625,249.99899291992188)" opacity="1" style="display: none;"><g opacity="1" transform="matrix(1,0,0,1,0,0)"><path stroke-linecap="round" stroke-linejoin="round" fill-opacity="0" class="secondary" stroke="rgb(235,230,239)" stroke-opacity="1" stroke-width="7" d=" M-52.85900115966797,166.0500030517578 C-144.53799438476562,166.0500030517578 -218.85699462890625,91.70600128173828 -218.85699462890625,0 C-218.85699462890625,-91.70600128173828 -144.53799438476562,-166.0500030517578 -52.85900115966797,-166.0500030517578"/></g></g><g transform="matrix(1,0,0,1,302.85699462890625,249.99899291992188)" opacity="1" style="display: block;"><g opacity="1" transform="matrix(1,0,0,1,0,0)"><path stroke-linecap="round" stroke-linejoin="round" fill-opacity="0" class="secondary" stroke="rgb(235,230,239)" stroke-opacity="1" stroke-width="7" d=" M-52.85900115966797,166.0500030517578 C-118.66571807861328,166.0500030517578 -172.01080322265625,91.70600128173828 -172.01080322265625,0 C-172.01080322265625,-91.70600128173828 -118.66571807861328,-166.0500030517578 -52.85900115966797,-166.0500030517578"/></g></g><g transform="matrix(1,0,0,1,302.85699462890625,249.99899291992188)" opacity="1" style="display: block;"><g opacity="1" transform="matrix(1,0,0,1,0,0)"><path stroke-linecap="round" stroke-linejoin="round" fill-opacity="0" class="secondary" stroke="rgb(235,230,239)" stroke-opacity="1" stroke-width="7" d=" M-52.85900115966797,166.0500030517578 C-64.72249603271484,166.0500030517578 -74.3392105102539,91.70600128173828 -74.3392105102539,0 C-74.3392105102539,-91.70600128173828 -64.72249603271484,-166.0500030517578 -52.85900115966797,-166.0500030517578"/></g></g><g transform="matrix(1,0,0,1,302.85699462890625,249.99899291992188)" opacity="1" style="display: block;"><g opacity="1" transform="matrix(1,0,0,1,0,0)"><path stroke-linecap="round" stroke-linejoin="round" fill-opacity="0" class="secondary" stroke="rgb(235,230,239)" stroke-opacity="1" stroke-width="7" d=" M-52.85900115966797,166.0500030517578 C-6.76867151260376,166.0500030517578 30.594160079956055,91.70600128173828 30.594160079956055,0 C30.594160079956055,-91.70600128173828 -6.76867151260376,-166.0500030517578 -52.85900115966797,-166.0500030517578"/></g></g><g transform="matrix(1,0,0,1,302.85699462890625,249.99899291992188)" opacity="1" style="display: block;"><g opacity="1" transform="matrix(1,0,0,1,0,0)"><path stroke-linecap="round" stroke-linejoin="round" fill-opacity="0" class="secondary" stroke="rgb(235,230,239)" stroke-opacity="1" stroke-width="7" d=" M-52.85900115966797,166.0500030517578 C35.511940002441406,166.0500030517578 107.1491470336914,91.70600128173828 107.1491470336914,0 C107.1491470336914,-91.70600128173828 35.511940002441406,-166.0500030517578 -52.85900115966797,-166.0500030517578"/></g></g><g transform="matrix(1,0,0,1,302.85699462890625,249.99899291992188)" opacity="1" style="display: none;"><g opacity="1" transform="matrix(1,0,0,1,0,0)"><path stroke-linecap="round" stroke-linejoin="round" fill-opacity="0" class="secondary" stroke="rgb(235,230,239)" stroke-opacity="1" stroke-width="7" d=" M-52.85900115966797,166.0500030517578 C8.783246994018555,166.0500030517578 58.753082275390625,91.70600128173828 58.753082275390625,0 C58.753082275390625,-91.70600128173828 8.783246994018555,-166.0500030517578 -52.85900115966797,-166.0500030517578"/></g></g></g></g></g><g clip-path="url(#__lottie_element_4233)" transform="matrix(1,0,0,1,0,0)" opacity="1" style="display: none;"><g transform="matrix(1,0,0,1,249.9980010986328,250.19400024414062)" opacity="1" style="display: block;"><g opacity="1" transform="matrix(1,0,0,1,0,0)"><path class="primary" fill="rgb(75,179,253)" fill-opacity="1" d=" M166.0500030517578,0 C166.0500030517578,91.70600128173828 91.70600128173828,166.0500030517578 0,166.0500030517578 C-91.70600128173828,166.0500030517578 -166.0500030517578,91.70600128173828 -166.0500030517578,0 C-166.0500030517578,-91.70600128173828 -91.70600128173828,-166.0500030517578 0,-166.0500030517578 C91.70600128173828,-166.0500030517578 166.0500030517578,-91.70600128173828 166.0500030517578,0z"/></g></g><g transform="matrix(1,0,0,1,166.30799865722656,250.1909942626953)" opacity="0.5" style="mix-blend-mode: multiply; display: block;"><g opacity="1" transform="matrix(1,0,0,1,0,0)" style="mix-blend-mode: multiply;"><path class="primary" fill="rgb(75,179,253)" fill-opacity="1" d=" M82.36000061035156,166.0399932861328 C-8.739999771118164,165.3300018310547 -82.36000061035156,91.26000213623047 -82.36000061035156,0 C-82.36000061035156,-91.2699966430664 -8.739999771118164,-165.3300018310547 82.36000061035156,-166.0399932861328 C26.420000076293945,-164.88999938964844 -18.719999313354492,-90.98999786376953 -18.719999313354492,0 C-18.719999313354492,90.9800033569336 26.420000076293945,164.88999938964844 82.36000061035156,166.0399932861328z"/></g></g><g mask="url(#__lottie_element_4246_1)" style="display: block;"><g clip-path="url(#__lottie_element_4243)" transform="matrix(1,0,0,1,0,0)" opacity="1"><g transform="matrix(1,0,0,1,385.7720031738281,249.99899291992188)" opacity="1" style="display: block;"><g opacity="1" transform="matrix(1,0,0,1,0,0)"><path stroke-linecap="round" stroke-linejoin="round" fill-opacity="0" class="secondary" stroke="rgb(235,230,239)" stroke-opacity="1" stroke-width="7" d=" M-301.2770080566406,-0.00800000037997961 C-301.2770080566406,-0.00800000037997961 -135.66099548339844,-0.01600000075995922 -135.66099548339844,-0.01600000075995922 M30.277000427246094,0 C30.277000427246094,0 -135.71400451660156,-0.004000000189989805 -135.71400451660156,-0.004000000189989805"/></g></g><g transform="matrix(1,0,0,1,250.0050048828125,135.4810028076172)" opacity="1" style="display: block;"><g opacity="1" transform="matrix(1,0,0,1,0,0)"><path stroke-linecap="round" stroke-linejoin="round" fill-opacity="0" class="secondary" stroke="rgb(235,230,239)" stroke-opacity="1" stroke-width="7" d=" M107.35099792480469,-12.137999534606934 C78.42500305175781,3.00600004196167 40.96500015258789,12.137999534606934 0.017000000923871994,12.137999534606934 C-40.930999755859375,12.137999534606934 -78.39199829101562,3.00600004196167 -107.35099792480469,-12.137999534606934"/></g></g><g transform="matrix(1,0,0,1,250.0050048828125,364.52301025390625)" opacity="1" style="display: block;"><g opacity="1" transform="matrix(1,0,0,1,0,0)"><path stroke-linecap="round" stroke-linejoin="round" fill-opacity="0" class="secondary" stroke="rgb(235,230,239)" stroke-opacity="1" stroke-width="7" d=" M-107.35099792480469,12.137999534606934 C-78.42500305175781,-3.00600004196167 -40.96500015258789,-12.137999534606934 -0.017000000923871994,-12.137999534606934 C40.930999755859375,-12.137999534606934 78.39199829101562,-3.00600004196167 107.35099792480469,12.137999534606934"/></g></g><g transform="matrix(1,0,0,1,302.85699462890625,249.99899291992188)" opacity="1" style="display: none;"><g opacity="1" transform="matrix(1,0,0,1,0,0)"><path stroke-linecap="round" stroke-linejoin="round" fill-opacity="0" class="secondary" stroke="rgb(235,230,239)" stroke-opacity="1" stroke-width="7" d=" M-52.85900115966797,166.0500030517578 C-144.53799438476562,166.0500030517578 -218.85699462890625,91.70600128173828 -218.85699462890625,0 C-218.85699462890625,-91.70600128173828 -144.53799438476562,-166.0500030517578 -52.85900115966797,-166.0500030517578"/></g></g><g transform="matrix(1,0,0,1,302.85699462890625,249.99899291992188)" opacity="1" style="display: none;"><g opacity="1" transform="matrix(1,0,0,1,0,0)"><path stroke-linecap="round" stroke-linejoin="round" fill-opacity="0" class="secondary" stroke="rgb(235,230,239)" stroke-opacity="1" stroke-width="7" d=" M-52.85900115966797,166.0500030517578 C-144.53799438476562,166.0500030517578 -218.85699462890625,91.70600128173828 -218.85699462890625,0 C-218.85699462890625,-91.70600128173828 -144.53799438476562,-166.0500030517578 -52.85900115966797,-166.0500030517578"/></g></g><g transform="matrix(1,0,0,1,302.85699462890625,249.99899291992188)" opacity="1" style="display: none;"><g opacity="1" transform="matrix(1,0,0,1,0,0)"><path stroke-linecap="round" stroke-linejoin="round" fill-opacity="0" class="secondary" stroke="rgb(235,230,239)" stroke-opacity="1" stroke-width="7" d=" M-52.85900115966797,166.0500030517578 C-144.53799438476562,166.0500030517578 -218.85699462890625,91.70600128173828 -218.85699462890625,0 C-218.85699462890625,-91.70600128173828 -144.53799438476562,-166.0500030517578 -52.85900115966797,-166.0500030517578"/></g></g><g transform="matrix(1,0,0,1,302.85699462890625,249.99899291992188)" opacity="1" style="display: none;"><g opacity="1" transform="matrix(1,0,0,1,0,0)"><path stroke-linecap="round" stroke-linejoin="round" fill-opacity="0" class="secondary" stroke="rgb(235,230,239)" stroke-opacity="1" stroke-width="7" d=" M-52.85900115966797,166.0500030517578 C-144.14234924316406,166.0500030517578 -218.14060974121094,91.70600128173828 -218.14060974121094,0 C-218.14060974121094,-91.70600128173828 -144.14234924316406,-166.0500030517578 -52.85900115966797,-166.0500030517578"/></g></g><g transform="matrix(1,0,0,1,302.85699462890625,249.99899291992188)" opacity="1" style="display: block;"><g opacity="1" transform="matrix(1,0,0,1,0,0)"><path stroke-linecap="round" stroke-linejoin="round" fill-opacity="0" class="secondary" stroke="rgb(235,230,239)" stroke-opacity="1" stroke-width="7" d=" M-52.85900115966797,166.0500030517578 C-109.19198608398438,166.0500030517578 -154.85696411132812,91.70600128173828 -154.85696411132812,0 C-154.85696411132812,-91.70600128173828 -109.19198608398438,-166.0500030517578 -52.85900115966797,-166.0500030517578"/></g></g><g transform="matrix(1,0,0,1,302.85699462890625,249.99899291992188)" opacity="1" style="display: block;"><g opacity="1" transform="matrix(1,0,0,1,0,0)"><path stroke-linecap="round" stroke-linejoin="round" fill-opacity="0" class="secondary" stroke="rgb(235,230,239)" stroke-opacity="1" stroke-width="7" d=" M-52.85900115966797,166.0500030517578 C-52.85798263549805,166.0500030517578 -52.85696792602539,91.70600128173828 -52.85696792602539,0 C-52.85696792602539,-91.70600128173828 -52.85798263549805,-166.0500030517578 -52.85900115966797,-166.0500030517578"/></g></g><g transform="matrix(1,0,0,1,302.85699462890625,249.99899291992188)" opacity="1" style="display: block;"><g opacity="1" transform="matrix(1,0,0,1,0,0)"><path stroke-linecap="round" stroke-linejoin="round" fill-opacity="0" class="secondary" stroke="rgb(235,230,239)" stroke-opacity="1" stroke-width="7" d=" M-52.85900115966797,166.0500030517578 C5.528010368347168,166.0500030517578 52.8590202331543,91.70600128173828 52.8590202331543,0 C52.8590202331543,-91.70600128173828 5.528010368347168,-166.0500030517578 -52.85900115966797,-166.0500030517578"/></g></g></g></g></g></g><g clip-path="url(#__lottie_element_4085)" transform="matrix(1,0,0,1,0,0)" opacity="1" style="display: block;"><g transform="matrix(1,0,0,1,-105.9053955078125,0)" opacity="1" style="display: block;"><g opacity="1" transform="matrix(1,0,0,1,0,0)"><g opacity="1" transform="matrix(1,0,0,1,189.9770050048828,161.78399658203125)"><path class="tertiary" fill="rgb(255,199,56)" fill-opacity="1" d=" M11.950407981872559,71.7933349609375 C11.950407981872559,71.7933349609375 10.985697746276855,69.5269546508789 10.985697746276855,69.5269546508789 C10.985697746276855,69.5269546508789 9.955830574035645,71.7933349609375 9.955830574035645,71.7933349609375"/></g><g opacity="1" transform="matrix(1,0,0,1,190.13099670410156,172.7030029296875)"><path class="tertiary" fill="rgb(255,199,56)" fill-opacity="1" d=" M11.55839729309082,60.31658172607422 C11.55839729309082,60.31658172607422 10.054840087890625,60.31658172607422 10.054840087890625,60.31658172607422"/></g></g><g opacity="1" transform="matrix(1,0,0,1,189.9770050048828,176.4550018310547)"><path class="tertiary" fill="rgb(255,199,56)" fill-opacity="1" d=" M9.758269309997559,58.52957534790039 C9.758269309997559,58.52957534790039 10.989228248596191,59.919090270996094 10.989228248596191,59.919090270996094 C10.989228248596191,59.919090270996094 12.22053337097168,58.52957534790039 12.22053337097168,58.52957534790039 C12.22053337097168,58.52957534790039 13.755195617675781,58.52957534790039 13.755195617675781,58.52957534790039 C13.955750465393066,58.52957534790039 14.118401527404785,58.36692428588867 14.118401527404785,58.1663703918457 C14.118401527404785,58.1663703918457 14.118401527404785,53.9682502746582 14.118401527404785,53.9682502746582 C14.118401527404785,53.76752471923828 13.955692291259766,53.60481643676758 13.754963874816895,53.60481643676758 C13.754963874816895,53.60481643676758 8.151273727416992,53.60481643676758 8.151273727416992,53.60481643676758 C7.950545787811279,53.60481643676758 7.78783655166626,53.76752471923828 7.78783655166626,53.9682502746582 C7.78783655166626,53.9682502746582 7.78783655166626,58.1663703918457 7.78783655166626,58.1663703918457 C7.78783655166626,58.36692428588867 7.9504876136779785,58.52957534790039 8.151041984558105,58.52957534790039 C8.151041984558105,58.52957534790039 9.758269309997559,58.52957534790039 9.758269309997559,58.52957534790039z"/></g></g><g transform="matrix(1,0,0,1,115.85530090332031,0)" opacity="1" style="display: block;"><g opacity="1" transform="matrix(1,0,0,1,0,0)"><g opacity="1" transform="matrix(1,0,0,1,189.9770050048828,161.78399658203125)"><path class="tertiary" fill="rgb(255,199,56)" fill-opacity="1" d=" M18.923999786376953,21.5 C18.923999786376953,21.5 0.628000020980835,-21.5 0.628000020980835,-21.5 C0.628000020980835,-21.5 -18.923999786376953,21.5 -18.923999786376953,21.5"/></g><g opacity="1" transform="matrix(1,0,0,1,190.13099670410156,172.7030029296875)"><path class="tertiary" fill="rgb(255,199,56)" fill-opacity="1" d=" M14.267000198364258,0 C14.267000198364258,0 -14.267000198364258,0 -14.267000198364258,0"/></g></g><g opacity="1" transform="matrix(1,0,0,1,189.9770050048828,176.4550018310547)"><path class="tertiary" fill="rgb(255,199,56)" fill-opacity="1" d=" M-22.663000106811523,33.5359992980957 C-22.663000106811523,33.5359992980957 0.6890000104904175,59.88800048828125 0.6890000104904175,59.88800048828125 C0.6890000104904175,59.88800048828125 24.047000885009766,33.5359992980957 24.047000885009766,33.5359992980957 C24.047000885009766,33.5359992980957 53.1510009765625,33.5359992980957 53.1510009765625,33.5359992980957 C56.95800018310547,33.5359992980957 60.04499816894531,30.448999404907227 60.04499816894531,26.642000198364258 C60.04499816894531,26.642000198364258 60.04499816894531,-52.9900016784668 60.04499816894531,-52.9900016784668 C60.04499816894531,-56.79999923706055 56.957000732421875,-59.88800048828125 53.14699935913086,-59.88800048828125 C53.14699935913086,-59.88800048828125 -53.14699935913086,-59.88800048828125 -53.14699935913086,-59.88800048828125 C-56.957000732421875,-59.88800048828125 -60.04499816894531,-56.79999923706055 -60.04499816894531,-52.9900016784668 C-60.04499816894531,-52.9900016784668 -60.04499816894531,26.642000198364258 -60.04499816894531,26.642000198364258 C-60.04499816894531,30.448999404907227 -56.95800018310547,33.5359992980957 -53.1510009765625,33.5359992980957 C-53.1510009765625,33.5359992980957 -22.663000106811523,33.5359992980957 -22.663000106811523,33.5359992980957z"/></g></g><g transform="matrix(1,0,0,1,0,0)" opacity="1" style="display: none;"><g opacity="1" transform="matrix(1,0,0,1,0,0)"><g opacity="1" transform="matrix(1,0,0,1,189.9770050048828,161.78399658203125)"><path class="tertiary" fill="rgb(255,199,56)" fill-opacity="1" d=" M18.923999786376953,21.5 C18.923999786376953,21.5 0.628000020980835,-21.5 0.628000020980835,-21.5 C0.628000020980835,-21.5 -18.923999786376953,21.5 -18.923999786376953,21.5"/></g><g opacity="1" transform="matrix(1,0,0,1,190.13099670410156,172.7030029296875)"><path class="tertiary" fill="rgb(255,199,56)" fill-opacity="1" d=" M14.267000198364258,0 C14.267000198364258,0 -14.267000198364258,0 -14.267000198364258,0"/></g></g><g opacity="1" transform="matrix(1,0,0,1,189.9770050048828,176.4550018310547)"><path class="tertiary" fill="rgb(255,199,56)" fill-opacity="1" d=" M-22.663000106811523,33.5359992980957 C-22.663000106811523,33.5359992980957 0.6890000104904175,59.88800048828125 0.6890000104904175,59.88800048828125 C0.6890000104904175,59.88800048828125 24.047000885009766,33.5359992980957 24.047000885009766,33.5359992980957 C24.047000885009766,33.5359992980957 53.1510009765625,33.5359992980957 53.1510009765625,33.5359992980957 C56.95800018310547,33.5359992980957 60.04499816894531,30.448999404907227 60.04499816894531,26.642000198364258 C60.04499816894531,26.642000198364258 60.04499816894531,-52.9900016784668 60.04499816894531,-52.9900016784668 C60.04499816894531,-56.79999923706055 56.957000732421875,-59.88800048828125 53.14699935913086,-59.88800048828125 C53.14699935913086,-59.88800048828125 -53.14699935913086,-59.88800048828125 -53.14699935913086,-59.88800048828125 C-56.957000732421875,-59.88800048828125 -60.04499816894531,-56.79999923706055 -60.04499816894531,-52.9900016784668 C-60.04499816894531,-52.9900016784668 -60.04499816894531,26.642000198364258 -60.04499816894531,26.642000198364258 C-60.04499816894531,30.448999404907227 -56.95800018310547,33.5359992980957 -53.1510009765625,33.5359992980957 C-53.1510009765625,33.5359992980957 -22.663000106811523,33.5359992980957 -22.663000106811523,33.5359992980957z"/></g></g><g transform="matrix(1,0,0,1,-127.30474853515625,6.647369384765625)" opacity="1" style="display: block;"><g opacity="1" transform="matrix(1,0,0,1,296.7019958496094,309.88800048828125)"><path class="quaternary" fill="rgb(242,76,0)" fill-opacity="1" d=" M-15.297487258911133,42.41950607299805 C-15.297487258911133,42.41950607299805 0.30211859941482544,60.023193359375 0.30211859941482544,60.023193359375 C0.30211859941482544,60.023193359375 15.905755043029785,42.41950607299805 15.905755043029785,42.41950607299805 C15.905755043029785,42.41950607299805 35.34789276123047,42.41950607299805 35.34789276123047,42.41950607299805 C37.891212463378906,42.41950607299805 39.95341873168945,40.357627868652344 39.95341873168945,37.814308166503906 C39.95341873168945,37.814308166503906 39.95341873168945,-15.381781578063965 39.95341873168945,-15.381781578063965 C39.95341873168945,-17.92711639404297 37.890541076660156,-19.989665985107422 35.34520721435547,-19.989665985107422 C35.34520721435547,-19.989665985107422 -35.661537170410156,-19.989665985107422 -35.661537170410156,-19.989665985107422 C-38.206871032714844,-19.989665985107422 -40.2694206237793,-17.92711639404297 -40.2694206237793,-15.381781578063965 C-40.2694206237793,-15.381781578063965 -40.2694206237793,37.814308166503906 -40.2694206237793,37.814308166503906 C-40.2694206237793,40.357627868652344 -38.207542419433594,42.41950607299805 -35.664222717285156,42.41950607299805 C-35.664222717285156,42.41950607299805 -15.297487258911133,42.41950607299805 -15.297487258911133,42.41950607299805z"/></g><g opacity="1" transform="matrix(1,0,0,1,0,0)"><g opacity="1" transform="matrix(1,0,0,1,297.20098876953125,290.0299987792969)"><path class="quaternary" fill="rgb(242,76,0)" fill-opacity="1" d=" M-18.933805465698242,26.60917091369629 C-18.933805465698242,26.60917091369629 18.285720825195312,26.60917091369629 18.285720825195312,26.60917091369629"/></g><g opacity="1" transform="matrix(1,0,0,1,296.7019958496094,279.87701416015625)"><path class="quaternary" fill="rgb(242,76,0)" fill-opacity="1" d=" M-0.15816524624824524,23.19722557067871 C-0.15816524624824524,23.19722557067871 -0.15816524624824524,36.762168884277344 -0.15816524624824524,36.762168884277344"/></g><g opacity="1" transform="matrix(1,0,0,1,0,0)"><g opacity="1" transform="matrix(1,0,0,1,287.02301025390625,303.71099853515625)"><path class="quaternary" fill="rgb(242,76,0)" fill-opacity="1" d=" M-8.086886405944824,30.75594711303711 C-8.086886405944824,30.75594711303711 -7.826174736022949,30.810710906982422 -7.826174736022949,30.810710906982422 C3.5267231464385986,33.19276809692383 14.197249412536621,24.529342651367188 14.197249412536621,12.928499221801758 C14.197249412536621,12.928499221801758 14.197249412536621,12.928499221801758 14.197249412536621,12.928499221801758"/></g><g opacity="1" transform="matrix(1,0,0,1,309.8800048828125,312.8450012207031)"><path class="quaternary" fill="rgb(242,76,0)" fill-opacity="1" d=" M-13.337509155273438,15.998763084411621 C-9.169079780578613,20.63486671447754 -2.7029192447662354,23.079750061035156 4.0108442306518555,21.67705535888672 C4.0108442306518555,21.67705535888672 4.271555423736572,21.623634338378906 4.271555423736572,21.623634338378906"/></g></g></g></g><g transform="matrix(1,0,0,1,0,0)" opacity="1" style="display: none;"><g opacity="1" transform="matrix(1,0,0,1,296.7019958496094,309.88800048828125)"><path class="quaternary" fill="rgb(242,76,0)" fill-opacity="1" d=" M-22.663000106811523,33.5359992980957 C-22.663000106811523,33.5359992980957 0.6890000104904175,59.88800048828125 0.6890000104904175,59.88800048828125 C0.6890000104904175,59.88800048828125 24.047000885009766,33.5359992980957 24.047000885009766,33.5359992980957 C24.047000885009766,33.5359992980957 53.1510009765625,33.5359992980957 53.1510009765625,33.5359992980957 C56.95800018310547,33.5359992980957 60.04499816894531,30.448999404907227 60.04499816894531,26.642000198364258 C60.04499816894531,26.642000198364258 60.04499816894531,-52.9900016784668 60.04499816894531,-52.9900016784668 C60.04499816894531,-56.79999923706055 56.957000732421875,-59.88800048828125 53.14699935913086,-59.88800048828125 C53.14699935913086,-59.88800048828125 -53.14699935913086,-59.88800048828125 -53.14699935913086,-59.88800048828125 C-56.957000732421875,-59.88800048828125 -60.04499816894531,-56.79999923706055 -60.04499816894531,-52.9900016784668 C-60.04499816894531,-52.9900016784668 -60.04499816894531,26.642000198364258 -60.04499816894531,26.642000198364258 C-60.04499816894531,30.448999404907227 -56.95800018310547,33.5359992980957 -53.1510009765625,33.5359992980957 C-53.1510009765625,33.5359992980957 -22.663000106811523,33.5359992980957 -22.663000106811523,33.5359992980957z"/></g><g opacity="1" transform="matrix(1,0,0,1,0,0)"><g opacity="1" transform="matrix(1,0,0,1,297.20098876953125,290.0299987792969)"><path class="quaternary" fill="rgb(242,76,0)" fill-opacity="1" d=" M-27.857999801635742,0 C-27.857999801635742,0 27.857999801635742,0 27.857999801635742,0"/></g><g opacity="1" transform="matrix(1,0,0,1,296.7019958496094,279.87701416015625)"><path class="quaternary" fill="rgb(242,76,0)" fill-opacity="1" d=" M0,-10.152999877929688 C0,-10.152999877929688 0,10.152999877929688 0,10.152999877929688"/></g><g opacity="1" transform="matrix(1,0,0,1,0,0)"><g opacity="1" transform="matrix(1,0,0,1,287.02301025390625,303.71099853515625)"><path class="quaternary" fill="rgb(242,76,0)" fill-opacity="1" d=" M-16.679000854492188,13.005999565124512 C-16.679000854492188,13.005999565124512 -16.288999557495117,13.088000297546387 -16.288999557495117,13.088000297546387 C0.7059999704360962,16.65399932861328 16.679000854492188,3.684999942779541 16.679000854492188,-13.680999755859375 C16.679000854492188,-13.680999755859375 16.679000854492188,-13.680999755859375 16.679000854492188,-13.680999755859375"/></g><g opacity="1" transform="matrix(1,0,0,1,309.8800048828125,312.8450012207031)"><path class="quaternary" fill="rgb(242,76,0)" fill-opacity="1" d=" M-13.180000305175781,-4.545000076293945 C-6.940000057220459,2.3949999809265137 2.740000009536743,6.054999828338623 12.789999961853027,3.9549999237060547 C12.789999961853027,3.9549999237060547 13.180000305175781,3.875 13.180000305175781,3.875"/></g></g></g></g><g transform="matrix(1,0,0,1,-136,10)" opacity="1" style="display: none;"><g opacity="1" transform="matrix(1,0,0,1,296.7019958496094,309.88800048828125)"><path class="quaternary" fill="rgb(242,76,0)" fill-opacity="1" d=" M-0.21699999272823334,60.608001708984375 C-0.21699999272823334,60.608001708984375 -0.49000000953674316,60.29999923706055 -0.49000000953674316,60.29999923706055 C-0.49000000953674316,60.29999923706055 -0.7630000114440918,60.608001708984375 -0.7630000114440918,60.608001708984375 C-0.7630000114440918,60.608001708984375 -1.1030000448226929,60.608001708984375 -1.1030000448226929,60.608001708984375 C-1.1469999551773071,60.608001708984375 -1.1829999685287476,60.64500045776367 -1.1829999685287476,60.68899917602539 C-1.1829999685287476,60.68899917602539 -1.1829999685287476,61.61899948120117 -1.1829999685287476,61.61899948120117 C-1.1829999685287476,61.66299819946289 -1.1469999551773071,61.70000076293945 -1.1030000448226929,61.70000076293945 C-1.1030000448226929,61.70000076293945 0.13899999856948853,61.70000076293945 0.13899999856948853,61.70000076293945 C0.18299999833106995,61.70000076293945 0.2199999988079071,61.66299819946289 0.2199999988079071,61.61899948120117 C0.2199999988079071,61.61899948120117 0.2199999988079071,60.68899917602539 0.2199999988079071,60.68899917602539 C0.2199999988079071,60.64500045776367 0.18299999833106995,60.608001708984375 0.13899999856948853,60.608001708984375 C0.13899999856948853,60.608001708984375 -0.21699999272823334,60.608001708984375 -0.21699999272823334,60.608001708984375z"/></g><g opacity="1" transform="matrix(1,0,0,1,0,0)"><g opacity="1" transform="matrix(1,0,0,1,297.20098876953125,290.0299987792969)"><path class="quaternary" fill="rgb(242,76,0)" fill-opacity="1" d=" M-0.6620000004768372,81.08999633789062 C-0.6620000004768372,81.08999633789062 -1.312999963760376,81.08999633789062 -1.312999963760376,81.08999633789062"/></g><g opacity="1" transform="matrix(1,0,0,1,296.7019958496094,279.87701416015625)"><path class="quaternary" fill="rgb(242,76,0)" fill-opacity="1" d=" M-0.4819999933242798,91.4800033569336 C-0.4819999933242798,91.4800033569336 -0.4819999933242798,91.24299621582031 -0.4819999933242798,91.24299621582031"/></g><g opacity="1" transform="matrix(1,0,0,1,0,0)"><g opacity="1" transform="matrix(1,0,0,1,287.02301025390625,303.71099853515625)"><path class="quaternary" fill="rgb(242,76,0)" fill-opacity="1" d=" M9.505000114440918,67.0979995727539 C9.505000114440918,67.0979995727539 9.50100040435791,67.09700012207031 9.50100040435791,67.09700012207031 C9.302000045776367,67.05500030517578 9.116000175476074,67.20700073242188 9.116000175476074,67.41000366210938 C9.116000175476074,67.41000366210938 9.116000175476074,67.41000366210938 9.116000175476074,67.41000366210938"/></g><g opacity="1" transform="matrix(1,0,0,1,309.8800048828125,312.8450012207031)"><path class="quaternary" fill="rgb(242,76,0)" fill-opacity="1" d=" M-13.65999984741211,58.06100082397461 C-13.732999801635742,57.97999954223633 -13.847000122070312,57.9370002746582 -13.96399974822998,57.96200180053711 C-13.96399974822998,57.96200180053711 -13.968000411987305,57.9630012512207 -13.968000411987305,57.9630012512207"/></g></g></g></g></g><g transform="matrix(1,0,0,1,-105.9053955078125,0)" opacity="1" style="display: block;"><g opacity="1" transform="matrix(1,0,0,1,0,0)"><g opacity="1" transform="matrix(1,0,0,1,189.9770050048828,161.78399658203125)"><path stroke-linecap="round" stroke-linejoin="round" fill-opacity="0" class="quinary" stroke="rgb(58,51,71)" stroke-opacity="1" stroke-width="7" d=" M11.950407981872559,71.7933349609375 C11.950407981872559,71.7933349609375 10.985697746276855,69.5269546508789 10.985697746276855,69.5269546508789 C10.985697746276855,69.5269546508789 9.955830574035645,71.7933349609375 9.955830574035645,71.7933349609375"/></g><g opacity="1" transform="matrix(1,0,0,1,190.13099670410156,172.7030029296875)"><path stroke-linecap="round" stroke-linejoin="round" fill-opacity="0" class="quinary" stroke="rgb(58,51,71)" stroke-opacity="1" stroke-width="7" d=" M11.55839729309082,60.31658172607422 C11.55839729309082,60.31658172607422 10.054840087890625,60.31658172607422 10.054840087890625,60.31658172607422"/></g></g><g opacity="1" transform="matrix(1,0,0,1,189.9770050048828,176.4550018310547)"><path stroke-linecap="round" stroke-linejoin="round" fill-opacity="0" class="tertiary" stroke="rgb(255,199,56)" stroke-opacity="1" stroke-width="7" d=" M9.758269309997559,58.52957534790039 C9.758269309997559,58.52957534790039 10.989228248596191,59.919090270996094 10.989228248596191,59.919090270996094 C10.989228248596191,59.919090270996094 12.22053337097168,58.52957534790039 12.22053337097168,58.52957534790039 C12.22053337097168,58.52957534790039 13.755195617675781,58.52957534790039 13.755195617675781,58.52957534790039 C13.955750465393066,58.52957534790039 14.118401527404785,58.36692428588867 14.118401527404785,58.1663703918457 C14.118401527404785,58.1663703918457 14.118401527404785,53.9682502746582 14.118401527404785,53.9682502746582 C14.118401527404785,53.76752471923828 13.955692291259766,53.60481643676758 13.754963874816895,53.60481643676758 C13.754963874816895,53.60481643676758 8.151273727416992,53.60481643676758 8.151273727416992,53.60481643676758 C7.950545787811279,53.60481643676758 7.78783655166626,53.76752471923828 7.78783655166626,53.9682502746582 C7.78783655166626,53.9682502746582 7.78783655166626,58.1663703918457 7.78783655166626,58.1663703918457 C7.78783655166626,58.36692428588867 7.9504876136779785,58.52957534790039 8.151041984558105,58.52957534790039 C8.151041984558105,58.52957534790039 9.758269309997559,58.52957534790039 9.758269309997559,58.52957534790039z"/></g></g><g transform="matrix(1,0,0,1,115.85530090332031,0)" opacity="1" style="display: block;"><g opacity="1" transform="matrix(1,0,0,1,0,0)"><g opacity="1" transform="matrix(1,0,0,1,189.9770050048828,161.78399658203125)"><path stroke-linecap="round" stroke-linejoin="round" fill-opacity="0" class="quinary" stroke="rgb(58,51,71)" stroke-opacity="1" stroke-width="7" d=" M18.923999786376953,21.5 C18.923999786376953,21.5 0.628000020980835,-21.5 0.628000020980835,-21.5 C0.628000020980835,-21.5 -18.923999786376953,21.5 -18.923999786376953,21.5"/></g><g opacity="1" transform="matrix(1,0,0,1,190.13099670410156,172.7030029296875)"><path stroke-linecap="round" stroke-linejoin="round" fill-opacity="0" class="quinary" stroke="rgb(58,51,71)" stroke-opacity="1" stroke-width="7" d=" M14.267000198364258,0 C14.267000198364258,0 -14.267000198364258,0 -14.267000198364258,0"/></g></g><g opacity="1" transform="matrix(1,0,0,1,189.9770050048828,176.4550018310547)"><path stroke-linecap="round" stroke-linejoin="round" fill-opacity="0" class="tertiary" stroke="rgb(255,199,56)" stroke-opacity="1" stroke-width="7" d=" M-22.663000106811523,33.5359992980957 C-22.663000106811523,33.5359992980957 0.6890000104904175,59.88800048828125 0.6890000104904175,59.88800048828125 C0.6890000104904175,59.88800048828125 24.047000885009766,33.5359992980957 24.047000885009766,33.5359992980957 C24.047000885009766,33.5359992980957 53.1510009765625,33.5359992980957 53.1510009765625,33.5359992980957 C56.95800018310547,33.5359992980957 60.04499816894531,30.448999404907227 60.04499816894531,26.642000198364258 C60.04499816894531,26.642000198364258 60.04499816894531,-52.9900016784668 60.04499816894531,-52.9900016784668 C60.04499816894531,-56.79999923706055 56.957000732421875,-59.88800048828125 53.14699935913086,-59.88800048828125 C53.14699935913086,-59.88800048828125 -53.14699935913086,-59.88800048828125 -53.14699935913086,-59.88800048828125 C-56.957000732421875,-59.88800048828125 -60.04499816894531,-56.79999923706055 -60.04499816894531,-52.9900016784668 C-60.04499816894531,-52.9900016784668 -60.04499816894531,26.642000198364258 -60.04499816894531,26.642000198364258 C-60.04499816894531,30.448999404907227 -56.95800018310547,33.5359992980957 -53.1510009765625,33.5359992980957 C-53.1510009765625,33.5359992980957 -22.663000106811523,33.5359992980957 -22.663000106811523,33.5359992980957z"/></g></g><g transform="matrix(1,0,0,1,0,0)" opacity="1" style="display: none;"><g opacity="1" transform="matrix(1,0,0,1,0,0)"><g opacity="1" transform="matrix(1,0,0,1,189.9770050048828,161.78399658203125)"><path stroke-linecap="round" stroke-linejoin="round" fill-opacity="0" class="quinary" stroke="rgb(58,51,71)" stroke-opacity="1" stroke-width="7" d=" M18.923999786376953,21.5 C18.923999786376953,21.5 0.628000020980835,-21.5 0.628000020980835,-21.5 C0.628000020980835,-21.5 -18.923999786376953,21.5 -18.923999786376953,21.5"/></g><g opacity="1" transform="matrix(1,0,0,1,190.13099670410156,172.7030029296875)"><path stroke-linecap="round" stroke-linejoin="round" fill-opacity="0" class="quinary" stroke="rgb(58,51,71)" stroke-opacity="1" stroke-width="7" d=" M14.267000198364258,0 C14.267000198364258,0 -14.267000198364258,0 -14.267000198364258,0"/></g></g><g opacity="1" transform="matrix(1,0,0,1,189.9770050048828,176.4550018310547)"><path stroke-linecap="round" stroke-linejoin="round" fill-opacity="0" class="tertiary" stroke="rgb(255,199,56)" stroke-opacity="1" stroke-width="7" d=" M-22.663000106811523,33.5359992980957 C-22.663000106811523,33.5359992980957 0.6890000104904175,59.88800048828125 0.6890000104904175,59.88800048828125 C0.6890000104904175,59.88800048828125 24.047000885009766,33.5359992980957 24.047000885009766,33.5359992980957 C24.047000885009766,33.5359992980957 53.1510009765625,33.5359992980957 53.1510009765625,33.5359992980957 C56.95800018310547,33.5359992980957 60.04499816894531,30.448999404907227 60.04499816894531,26.642000198364258 C60.04499816894531,26.642000198364258 60.04499816894531,-52.9900016784668 60.04499816894531,-52.9900016784668 C60.04499816894531,-56.79999923706055 56.957000732421875,-59.88800048828125 53.14699935913086,-59.88800048828125 C53.14699935913086,-59.88800048828125 -53.14699935913086,-59.88800048828125 -53.14699935913086,-59.88800048828125 C-56.957000732421875,-59.88800048828125 -60.04499816894531,-56.79999923706055 -60.04499816894531,-52.9900016784668 C-60.04499816894531,-52.9900016784668 -60.04499816894531,26.642000198364258 -60.04499816894531,26.642000198364258 C-60.04499816894531,30.448999404907227 -56.95800018310547,33.5359992980957 -53.1510009765625,33.5359992980957 C-53.1510009765625,33.5359992980957 -22.663000106811523,33.5359992980957 -22.663000106811523,33.5359992980957z"/></g></g><g transform="matrix(1,0,0,1,-127.30474853515625,6.647369384765625)" opacity="1" style="display: block;"><g opacity="1" transform="matrix(1,0,0,1,296.7019958496094,309.88800048828125)"><path stroke-linecap="round" stroke-linejoin="round" fill-opacity="0" class="quaternary" stroke="rgb(242,76,0)" stroke-opacity="1" stroke-width="7" d=" M-15.297487258911133,42.41950607299805 C-15.297487258911133,42.41950607299805 0.30211859941482544,60.023193359375 0.30211859941482544,60.023193359375 C0.30211859941482544,60.023193359375 15.905755043029785,42.41950607299805 15.905755043029785,42.41950607299805 C15.905755043029785,42.41950607299805 35.34789276123047,42.41950607299805 35.34789276123047,42.41950607299805 C37.891212463378906,42.41950607299805 39.95341873168945,40.357627868652344 39.95341873168945,37.814308166503906 C39.95341873168945,37.814308166503906 39.95341873168945,-15.381781578063965 39.95341873168945,-15.381781578063965 C39.95341873168945,-17.92711639404297 37.890541076660156,-19.989665985107422 35.34520721435547,-19.989665985107422 C35.34520721435547,-19.989665985107422 -35.661537170410156,-19.989665985107422 -35.661537170410156,-19.989665985107422 C-38.206871032714844,-19.989665985107422 -40.2694206237793,-17.92711639404297 -40.2694206237793,-15.381781578063965 C-40.2694206237793,-15.381781578063965 -40.2694206237793,37.814308166503906 -40.2694206237793,37.814308166503906 C-40.2694206237793,40.357627868652344 -38.207542419433594,42.41950607299805 -35.664222717285156,42.41950607299805 C-35.664222717285156,42.41950607299805 -15.297487258911133,42.41950607299805 -15.297487258911133,42.41950607299805z"/></g><g opacity="1" transform="matrix(1,0,0,1,0,0)"><g opacity="1" transform="matrix(1,0,0,1,297.20098876953125,290.0299987792969)"><path stroke-linecap="round" stroke-linejoin="round" fill-opacity="0" class="quinary" stroke="rgb(58,51,71)" stroke-opacity="1" stroke-width="7" d=" M-18.933805465698242,26.60917091369629 C-18.933805465698242,26.60917091369629 18.285720825195312,26.60917091369629 18.285720825195312,26.60917091369629"/></g><g opacity="1" transform="matrix(1,0,0,1,296.7019958496094,279.87701416015625)"><path stroke-linecap="round" stroke-linejoin="round" fill-opacity="0" class="quinary" stroke="rgb(58,51,71)" stroke-opacity="1" stroke-width="7" d=" M-0.15816524624824524,23.19722557067871 C-0.15816524624824524,23.19722557067871 -0.15816524624824524,36.762168884277344 -0.15816524624824524,36.762168884277344"/></g><g opacity="1" transform="matrix(1,0,0,1,0,0)"><g opacity="1" transform="matrix(1,0,0,1,287.02301025390625,303.71099853515625)"><path stroke-linecap="round" stroke-linejoin="round" fill-opacity="0" class="quinary" stroke="rgb(58,51,71)" stroke-opacity="1" stroke-width="7" d=" M-8.086886405944824,30.75594711303711 C-8.086886405944824,30.75594711303711 -7.826174736022949,30.810710906982422 -7.826174736022949,30.810710906982422 C3.5267231464385986,33.19276809692383 14.197249412536621,24.529342651367188 14.197249412536621,12.928499221801758 C14.197249412536621,12.928499221801758 14.197249412536621,12.928499221801758 14.197249412536621,12.928499221801758"/></g><g opacity="1" transform="matrix(1,0,0,1,309.8800048828125,312.8450012207031)"><path stroke-linecap="round" stroke-linejoin="round" fill-opacity="0" class="quinary" stroke="rgb(58,51,71)" stroke-opacity="1" stroke-width="7" d=" M-13.337509155273438,15.998763084411621 C-9.169079780578613,20.63486671447754 -2.7029192447662354,23.079750061035156 4.0108442306518555,21.67705535888672 C4.0108442306518555,21.67705535888672 4.271555423736572,21.623634338378906 4.271555423736572,21.623634338378906"/></g></g></g></g><g transform="matrix(1,0,0,1,0,0)" opacity="1" style="display: none;"><g opacity="1" transform="matrix(1,0,0,1,296.7019958496094,309.88800048828125)"><path stroke-linecap="round" stroke-linejoin="round" fill-opacity="0" class="quaternary" stroke="rgb(242,76,0)" stroke-opacity="1" stroke-width="7" d=" M-22.663000106811523,33.5359992980957 C-22.663000106811523,33.5359992980957 0.6890000104904175,59.88800048828125 0.6890000104904175,59.88800048828125 C0.6890000104904175,59.88800048828125 24.047000885009766,33.5359992980957 24.047000885009766,33.5359992980957 C24.047000885009766,33.5359992980957 53.1510009765625,33.5359992980957 53.1510009765625,33.5359992980957 C56.95800018310547,33.5359992980957 60.04499816894531,30.448999404907227 60.04499816894531,26.642000198364258 C60.04499816894531,26.642000198364258 60.04499816894531,-52.9900016784668 60.04499816894531,-52.9900016784668 C60.04499816894531,-56.79999923706055 56.957000732421875,-59.88800048828125 53.14699935913086,-59.88800048828125 C53.14699935913086,-59.88800048828125 -53.14699935913086,-59.88800048828125 -53.14699935913086,-59.88800048828125 C-56.957000732421875,-59.88800048828125 -60.04499816894531,-56.79999923706055 -60.04499816894531,-52.9900016784668 C-60.04499816894531,-52.9900016784668 -60.04499816894531,26.642000198364258 -60.04499816894531,26.642000198364258 C-60.04499816894531,30.448999404907227 -56.95800018310547,33.5359992980957 -53.1510009765625,33.5359992980957 C-53.1510009765625,33.5359992980957 -22.663000106811523,33.5359992980957 -22.663000106811523,33.5359992980957z"/></g><g opacity="1" transform="matrix(1,0,0,1,0,0)"><g opacity="1" transform="matrix(1,0,0,1,297.20098876953125,290.0299987792969)"><path stroke-linecap="round" stroke-linejoin="round" fill-opacity="0" class="quinary" stroke="rgb(58,51,71)" stroke-opacity="1" stroke-width="7" d=" M-27.857999801635742,0 C-27.857999801635742,0 27.857999801635742,0 27.857999801635742,0"/></g><g opacity="1" transform="matrix(1,0,0,1,296.7019958496094,279.87701416015625)"><path stroke-linecap="round" stroke-linejoin="round" fill-opacity="0" class="quinary" stroke="rgb(58,51,71)" stroke-opacity="1" stroke-width="7" d=" M0,-10.152999877929688 C0,-10.152999877929688 0,10.152999877929688 0,10.152999877929688"/></g><g opacity="1" transform="matrix(1,0,0,1,0,0)"><g opacity="1" transform="matrix(1,0,0,1,287.02301025390625,303.71099853515625)"><path stroke-linecap="round" stroke-linejoin="round" fill-opacity="0" class="quinary" stroke="rgb(58,51,71)" stroke-opacity="1" stroke-width="7" d=" M-16.679000854492188,13.005999565124512 C-16.679000854492188,13.005999565124512 -16.288999557495117,13.088000297546387 -16.288999557495117,13.088000297546387 C0.7059999704360962,16.65399932861328 16.679000854492188,3.684999942779541 16.679000854492188,-13.680999755859375 C16.679000854492188,-13.680999755859375 16.679000854492188,-13.680999755859375 16.679000854492188,-13.680999755859375"/></g><g opacity="1" transform="matrix(1,0,0,1,309.8800048828125,312.8450012207031)"><path stroke-linecap="round" stroke-linejoin="round" fill-opacity="0" class="quinary" stroke="rgb(58,51,71)" stroke-opacity="1" stroke-width="7" d=" M-13.180000305175781,-4.545000076293945 C-6.940000057220459,2.3949999809265137 2.740000009536743,6.054999828338623 12.789999961853027,3.9549999237060547 C12.789999961853027,3.9549999237060547 13.180000305175781,3.875 13.180000305175781,3.875"/></g></g></g></g><g transform="matrix(1,0,0,1,-136,10)" opacity="1" style="display: none;"><g opacity="1" transform="matrix(1,0,0,1,296.7019958496094,309.88800048828125)"><path stroke-linecap="round" stroke-linejoin="round" fill-opacity="0" class="quaternary" stroke="rgb(242,76,0)" stroke-opacity="1" stroke-width="7" d=" M-0.21699999272823334,60.608001708984375 C-0.21699999272823334,60.608001708984375 -0.49000000953674316,60.29999923706055 -0.49000000953674316,60.29999923706055 C-0.49000000953674316,60.29999923706055 -0.7630000114440918,60.608001708984375 -0.7630000114440918,60.608001708984375 C-0.7630000114440918,60.608001708984375 -1.1030000448226929,60.608001708984375 -1.1030000448226929,60.608001708984375 C-1.1469999551773071,60.608001708984375 -1.1829999685287476,60.64500045776367 -1.1829999685287476,60.68899917602539 C-1.1829999685287476,60.68899917602539 -1.1829999685287476,61.61899948120117 -1.1829999685287476,61.61899948120117 C-1.1829999685287476,61.66299819946289 -1.1469999551773071,61.70000076293945 -1.1030000448226929,61.70000076293945 C-1.1030000448226929,61.70000076293945 0.13899999856948853,61.70000076293945 0.13899999856948853,61.70000076293945 C0.18299999833106995,61.70000076293945 0.2199999988079071,61.66299819946289 0.2199999988079071,61.61899948120117 C0.2199999988079071,61.61899948120117 0.2199999988079071,60.68899917602539 0.2199999988079071,60.68899917602539 C0.2199999988079071,60.64500045776367 0.18299999833106995,60.608001708984375 0.13899999856948853,60.608001708984375 C0.13899999856948853,60.608001708984375 -0.21699999272823334,60.608001708984375 -0.21699999272823334,60.608001708984375z"/></g><g opacity="1" transform="matrix(1,0,0,1,0,0)"><g opacity="1" transform="matrix(1,0,0,1,297.20098876953125,290.0299987792969)"><path stroke-linecap="round" stroke-linejoin="round" fill-opacity="0" class="quinary" stroke="rgb(58,51,71)" stroke-opacity="1" stroke-width="7" d=" M-0.6620000004768372,81.08999633789062 C-0.6620000004768372,81.08999633789062 -1.312999963760376,81.08999633789062 -1.312999963760376,81.08999633789062"/></g><g opacity="1" transform="matrix(1,0,0,1,296.7019958496094,279.87701416015625)"><path stroke-linecap="round" stroke-linejoin="round" fill-opacity="0" class="quinary" stroke="rgb(58,51,71)" stroke-opacity="1" stroke-width="7" d=" M-0.4819999933242798,91.4800033569336 C-0.4819999933242798,91.4800033569336 -0.4819999933242798,91.24299621582031 -0.4819999933242798,91.24299621582031"/></g><g opacity="1" transform="matrix(1,0,0,1,0,0)"><g opacity="1" transform="matrix(1,0,0,1,287.02301025390625,303.71099853515625)"><path stroke-linecap="round" stroke-linejoin="round" fill-opacity="0" class="quinary" stroke="rgb(58,51,71)" stroke-opacity="1" stroke-width="7" d=" M9.505000114440918,67.0979995727539 C9.505000114440918,67.0979995727539 9.50100040435791,67.09700012207031 9.50100040435791,67.09700012207031 C9.302000045776367,67.05500030517578 9.116000175476074,67.20700073242188 9.116000175476074,67.41000366210938 C9.116000175476074,67.41000366210938 9.116000175476074,67.41000366210938 9.116000175476074,67.41000366210938"/></g><g opacity="1" transform="matrix(1,0,0,1,309.8800048828125,312.8450012207031)"><path stroke-linecap="round" stroke-linejoin="round" fill-opacity="0" class="quinary" stroke="rgb(58,51,71)" stroke-opacity="1" stroke-width="7" d=" M-13.65999984741211,58.06100082397461 C-13.732999801635742,57.97999954223633 -13.847000122070312,57.9370002746582 -13.96399974822998,57.96200180053711 C-13.96399974822998,57.96200180053711 -13.968000411987305,57.9630012512207 -13.968000411987305,57.9630012512207"/></g></g></g></g></g></g></svg>